# xmcd
#
# Track frame offsets: 
#        150
#        18565
#        38188
#
# Disc length: 779 seconds
#
# Revision: 0
# Processed by: cddbd v1.5.2PL0 Copyright (c) Steve Scherf et al.
# Submitted via: ExactAudioCopy v0.99pb5
#
DISCID=1d030903
DTITLE=Mary J. Blige - Family Affair (Single)
DYEAR=2001
DGENRE=R&B
TTITLE0=Family Affair (Remix) Feat. Jadakiss and Fabolous
TTITLE1=Family Affair (Remix) (Accapella) Feat. Jadakiss and Fabolous
TTITLE2=Family Affair (Instrumental)
EXTD=
EXTT0=
EXTT1=
EXTT2=
PLAYORDER=
